<?xml version="1.0" encoding="iso-8859-1"?>
<!-- Generator: Adobe Illustrator 19.0.0, SVG Export Plug-In . SVG Version: 6.00 Build 0)  -->
<svg version="1.1" id="Layer_1" xmlns="http://www.w3.org/2000/svg" xmlns:xlink="http://www.w3.org/1999/xlink" x="0px" y="0px"
	 viewBox="0 0 512 512" style="enable-background:new 0 0 512 512;" xml:space="preserve">
<rect x="225.701" y="16.799" style="fill:#FEE187;" width="60.613" height="155.194"/>
<g>
	<path style="fill:#FFC61B;" d="M286.305,188.798h-60.609c-9.277,0-16.799-7.523-16.799-16.799V16.799
		C208.897,7.523,216.42,0,225.696,0h60.609c9.277,0,16.799,7.523,16.799,16.799v155.199
		C303.105,181.275,295.582,188.798,286.305,188.798z M242.496,155.199h27.01v-121.6h-27.01V155.199z"/>
	<path style="fill:#FFC61B;" d="M256.001,512C117.44,512,4.712,399.272,4.712,260.713c0-47.684,13.388-94.102,38.713-134.238
		C68.557,86.647,104.28,54.793,146.73,34.358c5.204-2.501,11.335-2.16,16.225,0.914c4.89,3.074,7.86,8.445,7.86,14.224v96.491
		c0,9.277-7.523,16.799-16.799,16.799c-9.277,0-16.799-7.523-16.799-16.799V78.124c-61.621,39.756-98.905,107.498-98.905,182.59
		c0,120.034,97.656,217.688,217.69,217.688s217.69-97.654,217.69-217.688c0-75.09-37.285-142.833-98.905-182.59v50.701
		c22.72,20.516,39.778,46.533,49.553,75.704c6.093,18.175,9.183,37.08,9.183,56.184c0,97.886-79.635,177.52-177.52,177.52
		s-177.52-79.635-177.52-177.52c0-9.277,7.523-16.8,16.799-16.8s16.799,7.523,16.799,16.8c0,79.357,64.564,143.921,143.921,143.921
		s143.921-64.564,143.921-143.921c0-15.467-2.503-30.778-7.441-45.508c-8.633-25.76-24.255-48.487-45.179-65.726
		c-3.874-3.19-6.118-7.946-6.118-12.966V49.496c0-5.777,2.97-11.15,7.861-14.224c4.89-3.073,11.019-3.419,16.225-0.914
		c42.452,20.435,78.173,52.288,103.305,92.117c25.325,40.137,38.713,86.554,38.713,134.238C507.289,399.274,394.561,512,256.001,512
		z"/>
</g>
<g>
</g>
<g>
</g>
<g>
</g>
<g>
</g>
<g>
</g>
<g>
</g>
<g>
</g>
<g>
</g>
<g>
</g>
<g>
</g>
<g>
</g>
<g>
</g>
<g>
</g>
<g>
</g>
<g>
</g>
</svg>
