<?xml version="1.0" encoding="UTF-8" standalone="no"?>
<svg xmlns:dc="http://purl.org/dc/elements/1.1/" xmlns:cc="http://creativecommons.org/ns#" xmlns:rdf="http://www.w3.org/1999/02/22-rdf-syntax-ns#" xmlns:svg="http://www.w3.org/2000/svg" xmlns="http://www.w3.org/2000/svg" xmlns:sodipodi="http://sodipodi.sourceforge.net/DTD/sodipodi-0.dtd" xmlns:inkscape="http://www.inkscape.org/namespaces/inkscape" version="1.1" x="0px" y="0px" viewBox="206 206 100 100" enable-background="new 206 206 100 100" xml:space="preserve" id="svg2" inkscape:version="0.91 r13725" sodipodi:docname="start.svg"><metadata id="metadata18"><rdf:RDF><cc:Work rdf:about=""><dc:format>image/svg+xml</dc:format><dc:type rdf:resource="http://purl.org/dc/dcmitype/StillImage"/><dc:title/></cc:Work></rdf:RDF></metadata><defs id="defs16"/><sodipodi:namedview pagecolor="#ffffff" bordercolor="#666666" borderopacity="1" objecttolerance="10" gridtolerance="10" guidetolerance="10" inkscape:pageopacity="0" inkscape:pageshadow="2" inkscape:window-width="1278" inkscape:window-height="1368" id="namedview14" showgrid="false" inkscape:zoom="1.668772" inkscape:cx="58.520484" inkscape:cy="-98.940861" inkscape:window-x="1273" inkscape:window-y="0" inkscape:window-maximized="0" inkscape:current-layer="svg2"/><ellipse style="opacity:1;fill:#ffffff;fill-opacity:1;stroke:#ffffff;stroke-width:1.50899017;stroke-linecap:round;stroke-miterlimit:4;stroke-dasharray:none;stroke-dashoffset:0;stroke-opacity:1" id="path8119" cx="256" cy="256" rx="49.245506" ry="49.245502"/><g style="image-rendering:optimizeQuality;shape-rendering:geometricPrecision;text-rendering:geometricPrecision" id="g8" transform="matrix(0.04417671,0,0,0.04417671,228.5,228.5)"><path inkscape:connector-curvature="0" class="fil0" d="m 622,0 c 172,0 328,70 441,182 112,113 182,269 182,440 0,172 -70,328 -182,441 -113,112 -269,182 -441,182 -171,0 -327,-70 -440,-182 C 70,950 0,794 0,622 0,451 70,295 182,182 295,70 451,0 622,0 Z m 406,217 C 924,113 781,48 622,48 464,48 320,113 217,217 113,320 48,464 48,622 c 0,159 65,302 169,406 103,104 247,168 405,168 159,0 302,-64 406,-168 104,-104 168,-247 168,-406 0,-158 -64,-302 -168,-405 z" id="path10-3"/><path inkscape:connector-curvature="0" class="fil0" d="m 721,272 c 59,17 111,49 153,91 65,64 104,153 104,252 0,98 -39,187 -104,251 l 0,0 C 810,931 721,971 622,971 524,971 435,931 371,866 l 0,0 C 306,802 266,713 266,615 266,516 306,427 371,363 l 0,0 c 43,-43 96,-75 156,-92 l 0,57 c -45,15 -85,40 -118,73 l 0,0 c -54,55 -88,130 -88,214 0,83 34,158 88,213 55,54 130,88 213,88 84,0 159,-34 214,-88 l 0,0 c 54,-55 88,-130 88,-213 0,-84 -34,-159 -88,-214 -32,-32 -71,-57 -115,-72 l 0,-57 z m -71,-67 0,410 -55,0 0,-410 55,0 z" id="path12-8"/></g></svg>